# xmcd
#
# Track frame offsets: 
#        150
#        14015
#        33003
#        50308
#        61756
#        82442
#        96885
#        112854
#        132732
#        150305
#        169652
#        185328
#        198261
#        218758
#        239826
#        257886
#        273265
#        290509
#        306157
#
# Disc length: 4303 seconds
#
# Revision: 1
# Processed by: cddbd v1.5.2PL0 Copyright (c) Steve Scherf et al.
# Submitted via: ExactAudioCopyFreeDBPlugin 1.0
#
DISCID=0f10cd13
DTITLE=Various Artist - The Roots Of It All - Acoustic Blues - Vol. 4
DTITLE=Various Artist - The 1990s, 2000s and 2010s
DYEAR=2014
DGENRE=Blues
TTITLE0=Homesick James - Bein' With The One You Love
TTITLE1=Paul Geremia - Kick it In The Country
TTITLE2=Alvin Youngblood - Big Mama`s Door
TTITLE3=Keb' Mo' - You Can Love Yourself
TTITLE4=Doug MacLeod - Old Country Road
TTITLE5=Corey Harris - High Fever Blues
TTITLE6=Jimmie Lee Robinson - Angry Lover
TTITLE7=Geoff Muldaur - Sloppy Drunk
TTITLE8=Robert Lockwood Jr. - C.C. Rider
TTITLE9=Philadelphia Jerry Ricks - I Will Turn Your Money Green
TTITLE10=Roy Book Binder - Can`t Do That No More
TTITLE11=Precious Bryant - You Don`t Want Me No More
TTITLE12=Robert Belfour - Pushin' My Lick
TTITLE13=Eric Bibb - Come Back Baby
TTITLE14=Jimmy 'Duck' Holmes - Nightmare
TTITLE15=John Hammond - Statesboro Blues
TTITLE16=Del Rey and Suzy Thompson - Plymouth Rock
TTITLE17=Chris James and Patrick Rynn - Black Spider Blues
TTITLE18=Bonnie Raitt and Steve Freund - Ain`t Nothin' In Ramblin'
EXTD=YEAR: 2014
EXTT0=
EXTT1=
EXTT2=
EXTT3=
EXTT4=
EXTT5=
EXTT6=
EXTT7=
EXTT8=
EXTT9=
EXTT10=
EXTT11=
EXTT12=
EXTT13=
EXTT14=
EXTT15=
EXTT16=
EXTT17=
EXTT18=
PLAYORDER=
